<?xml version="1.0" encoding="utf-8"?>
<svg viewBox="0 0 500 500" xmlns="http://www.w3.org/2000/svg">
  <path d="M 344.035 58.004 C 395.522 58.158 437.222 99.857 437.375 151.344 L 437.375 338.004 C 437.222 389.49 395.522 431.19 344.035 431.344 L 157.375 431.344 C 105.889 431.19 64.189 389.49 64.035 338.004 L 64.035 151.344 C 64.189 99.857 105.889 58.158 157.375 58.004 L 344.035 58.004 M 344.035 20.674 L 157.375 20.674 C 85.505 20.674 26.705 79.474 26.705 151.344 L 26.705 338.004 C 26.705 409.874 85.505 468.674 157.375 468.674 L 344.035 468.674 C 415.905 468.674 474.705 409.874 474.705 338.004 L 474.705 151.344 C 474.705 79.474 415.905 20.674 344.035 20.674 Z" style="fill: rgb(255, 255, 255);"/>
  <path d="M 372.035 151.344 C 350.481 151.344 337.01 128.011 347.787 109.344 C 358.564 90.677 385.507 90.677 396.284 109.344 C 398.742 113.6 400.035 118.429 400.035 123.344 C 400.069 138.822 387.513 151.377 372.035 151.344 Z M 250.705 170.004 C 308.186 170.004 344.112 232.229 315.372 282.009 C 286.631 331.789 214.78 331.789 186.039 282.009 C 179.486 270.658 176.035 257.781 176.035 244.674 C 176.08 203.453 209.485 170.048 250.705 170.004 M 250.705 132.674 C 164.488 132.674 110.602 226.007 153.711 300.674 C 196.819 375.341 304.592 375.341 347.7 300.674 C 357.53 283.648 362.705 264.334 362.705 244.674 C 362.705 182.818 312.561 132.674 250.705 132.674 Z" style="fill: rgb(255, 255, 255);"/>
</svg>